<svg width="1024" height="1024" viewBox="0 0 1024 1024" fill="none" xmlns="http://www.w3.org/2000/svg">
<g clip-path="url(#clip0)">
<rect width="1024" height="1024" rx="512" fill="#414141"/>
<rect width="1024" height="1024" rx="180" fill="#414141"/>
<path d="M240.569 364.306C241.824 358.859 246.673 355 252.263 355H748.606C754.087 355 758.871 358.713 760.231 364.022L986.163 1246.02C988.108 1253.61 982.374 1261 974.539 1261H49.0788C41.3636 1261 35.653 1253.82 37.385 1246.31L240.569 364.306Z" fill="#F5F5F5"/>
<line x1="342" y1="576" x2="682" y2="576" stroke="#414141" stroke-width="40" stroke-linecap="round" stroke-linejoin="round"/>
<line x1="433.709" y1="473.293" x2="387.293" y2="850.448" stroke="#414141" stroke-width="40" stroke-linecap="round" stroke-linejoin="round"/>
<line x1="20" y1="-20" x2="400" y2="-20" transform="matrix(0.122147 0.992512 0.992512 -0.122147 591 459)" stroke="#414141" stroke-width="40" stroke-linecap="round" stroke-linejoin="round"/>
<line x1="306.932" y1="747.468" x2="716.929" y2="746.068" stroke="#414141" stroke-width="40" stroke-linecap="round" stroke-linejoin="round"/>
<path d="M350.982 482.589C352.127 477.007 357.04 473 362.738 473H380.511C387.692 473 393.266 479.265 392.43 486.397L387.272 530.397C386.563 536.443 381.44 541 375.353 541H353.712C346.115 541 340.43 534.03 341.956 526.589L350.982 482.589Z" fill="#EEEEEE"/>
<path d="M473.758 489.663C474.439 483.591 479.573 479 485.683 479H521.922C528.086 479 533.247 483.669 533.862 489.802L537.676 527.802C538.385 534.867 532.837 541 525.736 541H481.421C474.264 541 468.698 534.775 469.496 527.663L473.758 489.663Z" fill="#EEEEEE"/>
<path d="M614.644 499.455C613.77 492.304 619.351 486 626.555 486H652.789C658.287 486 663.082 489.736 664.425 495.068L672.237 526.068C674.147 533.647 668.417 541 660.601 541H630.343C624.278 541 619.167 536.475 618.432 530.455L614.644 499.455Z" fill="#EEEEEE"/>
<path d="M328.79 624.774C330.238 619.587 334.963 616 340.348 616H362.597C369.747 616 375.311 622.215 374.523 629.322L366.765 699.322C366.091 705.401 360.954 710 354.838 710H320.808C312.866 710 307.115 702.423 309.25 694.774L328.79 624.774Z" fill="#EEEEEE"/>
<path d="M460.352 628.561C461.08 622.534 466.195 618 472.266 618H533.4C539.452 618 544.556 622.506 545.307 628.511L553.313 692.511C554.209 699.673 548.624 706 541.405 706H464.536C457.339 706 451.76 699.707 452.623 692.561L460.352 628.561Z" fill="#EEEEEE"/>
<path d="M633.534 632.368C632.716 625.245 638.286 619 645.455 619H675.722C681.475 619 686.418 623.082 687.506 628.731L699.252 689.731C700.678 697.132 695.006 704 687.469 704H652.453C646.355 704 641.227 699.426 640.531 693.368L633.534 632.368Z" fill="#EEEEEE"/>
<path d="M302.195 795.978C303.571 790.691 308.345 787 313.808 787H341.194C348.486 787 354.093 793.45 353.077 800.671L349.139 828.671C348.305 834.595 343.237 839 337.255 839H306.522C298.668 839 292.931 831.579 294.909 823.978L302.195 795.978Z" fill="#EEEEEE"/>
<path d="M441.751 797.136C442.669 791.3 447.698 787 453.605 787H548.284C554.24 787 559.295 791.369 560.157 797.262L564.927 829.841C566.008 837.226 560.157 843.796 552.696 843.574L448.613 840.474C441.389 840.259 435.993 833.755 437.115 826.616L441.751 797.136Z" fill="#EEEEEE"/>
<path d="M652.707 801.505C651.801 794.337 657.388 788 664.613 788H700.111C705.863 788 710.806 792.082 711.894 797.73L718.251 830.73C719.677 838.132 714.006 845 706.468 845H668.784C662.739 845 657.637 840.503 656.879 834.505L652.707 801.505Z" fill="#EEEEEE"/>
</g>
<defs>
<clipPath id="clip0">
<rect width="1024" height="1024" rx="512" fill="white"/>
</clipPath>
</defs>
</svg>
